<?xml version="1.0" standalone="no"?>
<!DOCTYPE svg PUBLIC "-//W3C//DTD SVG 20010904//EN"
 "http://www.w3.org/TR/2001/REC-SVG-20010904/DTD/svg10.dtd">
<svg version="1.0" xmlns="http://www.w3.org/2000/svg"
 width="300.000000pt" height="300.000000pt" viewBox="0 0 300.000000 300.000000"
 preserveAspectRatio="xMidYMid meet">
<metadata>
Created by potrace 1.11, written by Peter Selinger 2001-2013
</metadata>
<g transform="translate(0.000000,300.000000) scale(0.100000,-0.100000)"
fill="#000000" stroke="none">
<path d="M0 1500 l0 -1501 813 4 c446 2 820 5 829 8 29 9 32 18 4 13 -23 -4
-26 -2 -18 13 10 20 5 44 -12 55 -6 4 -1 6 11 6 14 -2 19 -7 16 -18 -4 -12 -3
-12 5 -1 6 8 15 10 23 6 8 -5 5 1 -5 13 -11 12 -16 25 -13 29 4 3 7 1 7 -5 0
-7 5 -12 11 -12 5 0 7 5 3 12 -4 7 -3 8 5 4 6 -4 14 0 17 8 5 13 9 12 24 -7
15 -18 21 -20 32 -9 11 11 10 12 -6 6 -15 -6 -17 -4 -11 6 6 9 4 11 -6 5 -8
-5 -11 -5 -7 0 4 4 3 14 -3 22 -8 8 -8 13 -1 13 6 0 12 -5 14 -11 5 -14 37 -1
34 14 -1 7 -5 17 -9 24 -4 6 -2 15 4 19 7 4 9 3 5 -4 -8 -13 10 -26 24 -17 8
5 8 11 0 20 -9 10 -7 13 6 11 10 -2 18 -10 20 -19 1 -11 -2 -14 -9 -10 -7 4
-6 -1 2 -10 14 -18 26 -23 17 -8 -4 5 -2 11 4 13 6 2 4 14 -4 30 -9 17 -11 30
-5 34 5 3 8 0 7 -8 -2 -7 2 -12 9 -11 7 2 10 -4 7 -12 -5 -11 -2 -13 12 -8 17
6 18 5 4 -13 -14 -18 -14 -18 3 -5 13 11 15 17 6 28 -7 7 -10 15 -8 16 2 1 11
8 21 15 12 10 18 10 24 1 5 -8 3 -10 -7 -4 -8 5 -3 -4 10 -18 14 -15 27 -27
29 -27 3 0 -2 8 -11 18 -23 25 -9 36 17 15 21 -18 21 -18 2 5 -20 23 -10 31
14 10 11 -10 11 -9 0 6 -14 18 -13 19 3 13 24 -9 21 0 -4 14 -17 9 -20 8 -14
-3 5 -7 5 -10 0 -6 -4 4 -14 0 -21 -10 -7 -9 -13 -12 -13 -7 0 23 27 45 45 38
17 -6 18 -5 4 13 -14 18 -14 18 4 4 18 -13 19 -13 14 1 -4 11 0 15 15 14 24
-3 60 23 51 36 -2 4 -12 6 -22 3 -14 -5 -14 -4 -2 4 9 7 18 7 26 1 8 -7 13 -6
16 1 1 5 13 12 25 14 15 3 20 1 17 -8 -3 -8 2 -16 12 -20 13 -5 14 -4 6 7 -7
8 -9 17 -5 20 3 4 -2 9 -11 13 -9 3 -16 10 -16 15 0 5 11 2 25 -7 14 -9 22
-21 18 -27 -3 -6 -1 -7 5 -3 6 3 9 15 7 26 -2 11 0 20 5 20 5 0 6 8 3 18 -6
15 -5 16 12 2 12 -10 16 -10 11 -2 -9 15 12 45 25 36 5 -3 9 -1 9 4 0 5 -10
14 -22 20 -13 6 -18 11 -11 11 7 1 11 7 9 14 -1 6 -1 9 1 5 3 -5 9 -8 14 -8 6
0 7 5 4 11 -10 16 -13 59 -4 54 4 -3 8 -14 8 -25 1 -11 1 -29 2 -40 0 -25 17
-36 32 -21 9 9 8 11 -5 6 -11 -4 -18 -2 -18 4 0 6 5 11 11 11 5 0 8 4 4 9 -3
5 0 11 7 14 7 2 5 3 -4 2 -10 -2 -18 1 -18 6 0 8 15 13 23 7 7 -5 47 25 46 35
0 9 -2 9 -6 0 -2 -7 -9 -13 -14 -13 -6 0 -8 4 -4 9 3 5 1 12 -4 16 -6 3 -8 -3
-6 -13 2 -12 -3 -18 -17 -18 -15 0 -16 3 -6 11 17 13 21 35 6 35 -6 0 -3 6 7
14 10 7 20 19 21 27 2 8 5 24 8 36 3 14 0 23 -6 23 -7 0 -3 7 8 15 18 14 18
16 1 29 -17 13 -17 14 0 21 17 7 17 8 -2 15 -17 7 -17 9 -3 9 12 1 15 6 11 17
-5 13 -7 13 -14 2 -6 -9 -9 -9 -9 -1 0 6 5 15 10 18 6 4 8 11 4 16 -3 5 -10 7
-15 4 -5 -4 -9 -1 -9 4 0 16 16 13 30 -4 7 -8 16 -13 20 -10 5 3 11 1 15 -5 3
-5 -1 -10 -9 -10 -9 0 -16 -5 -16 -11 0 -5 4 -8 8 -5 5 3 9 -1 9 -9 0 -8 -4
-12 -9 -9 -4 3 -5 -2 -2 -10 3 -9 1 -16 -6 -16 -6 0 -8 -5 -5 -10 4 -6 12 -7
18 -3 7 4 4 -6 -7 -21 -16 -25 -16 -28 -2 -23 14 5 15 3 6 -13 -12 -23 -13
-33 -1 -25 5 3 13 0 17 -6 4 -8 3 -9 -4 -5 -7 4 -12 1 -12 -6 0 -10 -2 -10 -9
1 -6 9 -11 10 -15 2 -7 -11 8 -16 29 -11 6 1 16 3 22 3 9 0 9 4 3 12 -6 7 -6
15 1 22 11 11 1 46 -11 38 -4 -3 -8 11 -8 32 0 24 3 32 9 22 6 -9 9 -10 9 -2
0 6 -5 15 -10 18 -7 4 -7 12 0 24 5 10 6 22 2 26 -4 5 2 5 13 1 16 -5 15 -2
-5 13 -24 19 -24 20 -6 34 16 12 16 14 2 14 -9 0 -16 -4 -16 -9 0 -5 -5 -6
-10 -3 -8 5 -8 11 0 20 7 9 6 16 -7 26 -11 9 -14 10 -9 2 4 -8 2 -13 -6 -13
-9 0 -9 -3 2 -10 13 -8 12 -10 -4 -10 -20 0 -13 -15 7 -15 7 -1 11 -6 9 -13
-1 -7 3 -12 9 -12 5 0 7 -5 4 -10 -4 -6 -15 0 -27 15 -11 14 -25 22 -31 18 -8
-5 -8 -2 0 9 7 8 10 18 6 21 -3 4 -1 7 5 7 7 0 12 7 12 15 0 8 5 15 12 15 6 0
8 3 5 7 -4 3 -18 -3 -30 -15 -18 -17 -24 -19 -24 -8 0 8 4 13 8 10 4 -2 10 5
14 16 4 12 11 17 18 13 9 -5 9 -3 1 8 -5 8 -9 24 -8 36 0 12 -3 20 -7 17 -5
-3 -9 6 -9 20 0 14 -4 28 -10 31 -6 4 -5 11 2 19 13 14 40 -2 31 -18 -3 -4 -9
-2 -14 5 -5 9 -9 10 -9 3 0 -7 8 -20 17 -31 10 -10 14 -13 10 -6 -10 15 0 36
14 28 5 -4 9 -1 9 4 0 6 -5 11 -11 11 -5 0 -7 5 -4 10 4 6 11 7 17 4 7 -4 8
-2 4 4 -4 7 3 17 18 24 14 6 26 15 26 20 0 5 6 6 13 2 8 -5 8 -2 -2 9 -16 20
-2 23 19 5 12 -11 12 -10 1 4 -14 19 -3 24 17 8 6 -6 10 -8 8 -4 -6 8 35 48
54 52 8 2 27 4 42 4 15 1 25 5 23 8 -3 4 -16 6 -30 5 -14 -2 -25 1 -25 7 0 6
6 8 14 5 7 -3 23 1 35 9 11 8 21 12 21 7 1 -4 7 3 16 17 12 21 14 22 12 5 -2
-11 -6 -22 -10 -25 -3 -3 1 -14 9 -25 15 -19 15 -19 8 4 -5 18 -4 22 5 16 9
-5 11 -4 6 4 -4 6 -2 18 4 26 7 9 8 15 2 15 -5 0 -13 7 -16 16 -5 14 -4 15 9
4 8 -7 15 -9 15 -4 0 4 5 3 12 -4 7 -7 19 -12 28 -12 10 0 8 6 -10 21 -23 18
-23 19 -2 9 12 -6 22 -7 22 -2 0 18 68 -1 82 -22 4 -6 10 -7 15 -3 4 5 1 12
-6 16 -16 10 -3 19 25 16 13 -1 20 5 21 17 2 22 -13 24 -25 2 -8 -14 -10 -14
-14 4 -4 16 -2 19 10 15 10 -4 13 -2 8 5 -3 6 -2 13 4 17 6 4 7 11 3 18 -3 6
8 0 26 -12 32 -23 33 -23 19 -2 -11 18 -11 23 1 30 8 5 11 16 7 26 -5 15 -4
16 8 6 8 -7 12 -20 9 -29 -4 -13 -3 -14 5 -3 11 16 36 5 26 -11 -4 -6 -2 -8 4
-5 14 10 7 43 -8 39 -14 -3 -30 15 -30 33 1 6 5 2 11 -8 6 -9 15 -15 20 -11 5
3 17 0 25 -7 8 -6 17 -9 21 -5 3 3 1 6 -6 6 -7 0 -9 5 -6 11 4 6 14 8 22 5 8
-4 11 -2 7 5 -4 8 1 9 15 4 13 -4 21 -2 21 5 0 6 5 8 12 4 6 -4 8 -3 4 4 -3 6
-2 13 4 17 6 4 10 260 10 720 l0 715 -1500 0 -1500 0 0 -1500z m2972 88 c15
-12 14 -15 -3 -32 -11 -12 -19 -15 -19 -7 0 8 -11 5 -30 -9 -16 -12 -30 -19
-30 -16 0 14 6 21 14 18 5 -2 6 6 3 18 -3 11 -1 18 3 15 5 -3 11 1 14 7 3 7 3
2 0 -12 -7 -25 -7 -25 15 -6 16 15 18 21 9 28 -7 4 -8 8 -2 8 5 0 17 -6 26
-12z m-238 -200 c-6 -9 -34 1 -34 14 0 5 5 6 10 3 6 -3 10 0 10 7 0 10 3 9 9
-2 6 -8 8 -17 5 -22z m-189 -37 c3 -5 2 -12 -3 -15 -5 -3 -9 1 -9 9 0 17 3 19
12 6z m-35 -31 c0 -5 -4 -10 -10 -10 -5 0 -10 5 -10 10 0 6 5 10 10 10 6 0 10
-4 10 -10z m-86 -17 c3 6 3 1 0 -13 -6 -24 -6 -24 13 -7 16 14 20 14 20 2 0
-8 -3 -12 -7 -10 -4 2 -17 -7 -29 -21 -18 -21 -25 -23 -37 -14 -10 9 -14 9
-14 1 0 -6 -3 -10 -7 -9 -13 2 -43 -14 -43 -23 0 -4 8 -5 18 -2 15 6 15 5 3
-10 -8 -10 -15 -16 -16 -15 -8 10 -26 52 -20 46 10 -10 47 11 40 22 -3 6 1 7
9 4 9 -4 16 -1 16 6 0 7 7 10 15 7 23 -9 29 13 9 29 -18 14 -18 14 3 5 16 -8
23 -8 27 2z m-114 -124 c0 -3 -8 -14 -19 -23 -16 -15 -19 -15 -24 -2 -4 9 0
21 7 29 10 9 11 19 4 33 -6 12 -2 9 11 -6 11 -14 21 -28 21 -31z m-80 -79 c0
-5 -2 -10 -4 -10 -3 0 -8 5 -11 10 -3 6 -1 10 4 10 6 0 11 -4 11 -10z m25 -76
c-1 -10 -9 -18 -16 -16 -23 5 -32 19 -18 27 8 5 10 4 5 -3 -4 -7 -3 -12 3 -12
15 0 23 18 11 25 -5 3 -10 11 -10 16 0 6 6 4 14 -4 8 -8 13 -23 11 -33z m75
-303 c0 -6 -4 -13 -10 -16 -5 -3 -10 1 -10 9 0 9 5 16 10 16 6 0 10 -4 10 -9z
m-149 -228 c3 1 -1 -4 -7 -12 -9 -10 -16 -11 -30 -2 -17 10 -16 11 6 5 23 -6
24 -6 10 12 -14 17 -13 18 1 7 9 -7 18 -12 20 -10z m-45 -53 c0 -35 1 -35 -17
-13 -12 14 -12 16 0 8 11 -6 13 -4 8 7 -4 13 0 28 8 28 1 0 1 -13 1 -30z
m-251 -159 c-9 -8 -36 -10 -30 -2 2 4 11 8 20 8 8 0 13 -3 10 -6z m-267 -214
c7 -8 7 -18 2 -27 -5 -8 -7 -17 -5 -20 2 -4 -2 -7 -10 -7 -8 0 -15 4 -15 9 0
4 5 8 10 8 13 0 9 32 -5 42 -6 5 -6 8 1 8 6 0 16 -6 22 -13z"/>
<path d="M2405 1260 c-4 -6 -11 -7 -17 -4 -7 4 -8 2 -4 -5 6 -9 11 -9 22 0 14
11 18 19 10 19 -3 0 -8 -5 -11 -10z"/>
<path d="M2282 1174 c-7 -8 -8 -14 -3 -14 10 0 25 19 20 25 -2 1 -10 -3 -17
-11z"/>
<path d="M2975 1520 c-3 -6 1 -7 9 -4 18 7 21 14 7 14 -6 0 -13 -4 -16 -10z"/>
<path d="M2827 1459 c7 -7 15 -10 18 -7 3 3 -2 9 -12 12 -14 6 -15 5 -6 -5z"/>
<path d="M2774 1438 c-4 -7 -4 -10 1 -6 4 4 15 2 24 -5 14 -11 14 -10 2 6 -16
20 -18 21 -27 5z"/>
<path d="M2660 1370 c-13 -9 -13 -10 0 -10 9 -1 5 -6 -10 -15 -29 -17 -44 -19
-35 -6 3 5 0 13 -7 17 -7 4 -10 4 -6 -1 4 -4 4 -13 -1 -19 -6 -7 -4 -18 4 -29
13 -18 14 -17 20 2 3 12 12 21 19 21 8 0 19 6 26 14 13 16 44 10 33 -7 -4 -6
-1 -7 6 -2 9 5 7 12 -8 26 -23 22 -22 22 -41 9z"/>
<path d="M2675 1329 c-4 -6 -5 -12 -2 -15 2 -3 7 2 10 11 7 17 1 20 -8 4z"/>
<path d="M2736 1327 c3 -10 9 -15 12 -12 3 3 0 11 -7 18 -10 9 -11 8 -5 -6z"/>
<path d="M2530 1303 c0 -4 5 -15 10 -23 8 -13 10 -13 10 2 0 9 -4 20 -10 23
-5 3 -10 3 -10 -2z"/>
<path d="M2335 900 c-3 -5 -1 -10 4 -10 6 0 11 5 11 10 0 6 -2 10 -4 10 -3 0
-8 -4 -11 -10z"/>
<path d="M2334 839 c-3 -6 -1 -16 5 -22 9 -9 10 -7 5 7 -6 15 -4 17 6 11 9 -5
11 -4 6 3 -9 15 -13 15 -22 1z"/>
<path d="M2334 778 c-4 -5 -3 -12 0 -15 3 -4 6 -1 6 6 0 7 4 10 9 6 5 -3 12
-2 15 3 3 5 -2 9 -10 9 -8 0 -17 -4 -20 -9z"/>
<path d="M2261 646 c-9 -11 -8 -15 3 -19 11 -4 13 -1 9 10 -5 12 -3 14 8 7 20
-12 38 -14 44 -4 3 5 -3 7 -12 5 -10 -1 -23 2 -29 6 -7 6 -16 4 -23 -5z"/>
<path d="M2190 461 c0 -6 4 -12 8 -15 5 -3 9 1 9 9 0 8 -4 15 -9 15 -4 0 -8
-4 -8 -9z"/>
<path d="M2050 355 c-18 -19 -36 -33 -38 -30 -7 6 -32 -15 -32 -26 0 -5 8 -9
18 -9 14 0 15 2 2 10 -8 5 -13 10 -10 11 3 0 13 2 23 4 12 2 17 -1 13 -10 -3
-9 0 -12 9 -9 8 3 13 9 12 12 -4 15 37 50 52 45 12 -3 12 -2 -2 7 -9 6 -15 15
-12 21 12 18 -2 8 -35 -26z m30 12 c0 -2 -12 -14 -27 -28 l-28 -24 24 28 c23
25 31 32 31 24z"/>
<path d="M2073 305 c0 -8 4 -15 9 -15 4 0 8 4 8 9 0 6 -4 12 -8 15 -5 3 -9 -1
-9 -9z"/>
<path d="M1877 244 c-3 -4 1 -13 9 -21 19 -20 26 -13 10 9 -7 10 -16 15 -19
12z"/>
<path d="M1780 180 c-8 -5 -10 -10 -5 -10 6 0 2 -7 -8 -14 -16 -12 -16 -14 -2
-20 9 -3 13 -2 10 4 -3 6 -2 10 3 10 5 0 12 9 15 20 3 11 4 20 4 20 -1 0 -9
-5 -17 -10z"/>
<path d="M1807 159 c7 -7 15 -10 18 -7 3 3 -2 9 -12 12 -14 6 -15 5 -6 -5z"/>
<path d="M1691 117 c-9 -11 -7 -17 6 -28 16 -13 17 -12 4 4 -15 20 -2 23 19 5
12 -11 12 -10 0 7 -8 11 -15 21 -16 23 -1 1 -6 -4 -13 -11z"/>
<path d="M1655 59 c-4 -6 -5 -12 -2 -15 2 -3 7 2 10 11 7 17 1 20 -8 4z"/>
</g>
</svg>
